<mxfile host="app.diagrams.net" agent="Mozilla/5.0 (Windows NT 10.0; Win64; x64) AppleWebKit/537.36 (KHTML, like Gecko) Chrome/129.0.0.0 Safari/537.36 Edg/129.0.0.0" version="24.7.17">
  <diagram name="Page-1" id="mr85uSsX04E2dJJrmW4X">
    <mxGraphModel dx="1792" dy="1726" grid="0" gridSize="10" guides="1" tooltips="1" connect="1" arrows="1" fold="1" page="0" pageScale="1" pageWidth="850" pageHeight="1100" math="0" shadow="0">
      <root>
        <mxCell id="0" />
        <mxCell id="1" parent="0" />
        <mxCell id="94c8SYDP5ThlQuTTb6wz-1" value="CleverComputer&lt;div&gt;Player&lt;/div&gt;" style="shape=umlLifeline;perimeter=lifelinePerimeter;whiteSpace=wrap;html=1;container=1;dropTarget=0;collapsible=0;recursiveResize=0;outlineConnect=0;portConstraint=eastwest;newEdgeStyle={&quot;curved&quot;:0,&quot;rounded&quot;:0};" vertex="1" parent="1">
          <mxGeometry x="-79" y="-372" width="100" height="881" as="geometry" />
        </mxCell>
        <mxCell id="94c8SYDP5ThlQuTTb6wz-3" value="" style="html=1;points=[[0,0,0,0,5],[0,1,0,0,-5],[1,0,0,0,5],[1,1,0,0,-5]];perimeter=orthogonalPerimeter;outlineConnect=0;targetShapes=umlLifeline;portConstraint=eastwest;newEdgeStyle={&quot;curved&quot;:0,&quot;rounded&quot;:0};" vertex="1" parent="94c8SYDP5ThlQuTTb6wz-1">
          <mxGeometry x="45" y="54" width="10" height="718" as="geometry" />
        </mxCell>
        <mxCell id="94c8SYDP5ThlQuTTb6wz-7" value="" style="html=1;points=[[0,0,0,0,5],[0,1,0,0,-5],[1,0,0,0,5],[1,1,0,0,-5]];perimeter=orthogonalPerimeter;outlineConnect=0;targetShapes=umlLifeline;portConstraint=eastwest;newEdgeStyle={&quot;curved&quot;:0,&quot;rounded&quot;:0};" vertex="1" parent="94c8SYDP5ThlQuTTb6wz-1">
          <mxGeometry x="50" y="115" width="10" height="40" as="geometry" />
        </mxCell>
        <mxCell id="94c8SYDP5ThlQuTTb6wz-8" value="autoPlay()" style="html=1;align=left;spacingLeft=2;endArrow=block;rounded=0;edgeStyle=orthogonalEdgeStyle;curved=0;rounded=0;fontSize=12;startSize=8;endSize=8;" edge="1" target="94c8SYDP5ThlQuTTb6wz-7" parent="94c8SYDP5ThlQuTTb6wz-1">
          <mxGeometry relative="1" as="geometry">
            <mxPoint x="55" y="95" as="sourcePoint" />
            <Array as="points">
              <mxPoint x="85" y="125" />
            </Array>
          </mxGeometry>
        </mxCell>
        <mxCell id="94c8SYDP5ThlQuTTb6wz-11" value="" style="html=1;points=[[0,0,0,0,5],[0,1,0,0,-5],[1,0,0,0,5],[1,1,0,0,-5]];perimeter=orthogonalPerimeter;outlineConnect=0;targetShapes=umlLifeline;portConstraint=eastwest;newEdgeStyle={&quot;curved&quot;:0,&quot;rounded&quot;:0};" vertex="1" parent="94c8SYDP5ThlQuTTb6wz-1">
          <mxGeometry x="50" y="217.5" width="10" height="542.5" as="geometry" />
        </mxCell>
        <mxCell id="94c8SYDP5ThlQuTTb6wz-12" value="play()" style="html=1;align=left;spacingLeft=2;endArrow=block;rounded=0;edgeStyle=orthogonalEdgeStyle;curved=0;rounded=0;fontSize=12;startSize=8;endSize=8;" edge="1" target="94c8SYDP5ThlQuTTb6wz-11" parent="94c8SYDP5ThlQuTTb6wz-1">
          <mxGeometry relative="1" as="geometry">
            <mxPoint x="55" y="197.5" as="sourcePoint" />
            <Array as="points">
              <mxPoint x="85" y="227.5" />
            </Array>
          </mxGeometry>
        </mxCell>
        <mxCell id="94c8SYDP5ThlQuTTb6wz-22" value="" style="html=1;points=[[0,0,0,0,5],[0,1,0,0,-5],[1,0,0,0,5],[1,1,0,0,-5]];perimeter=orthogonalPerimeter;outlineConnect=0;targetShapes=umlLifeline;portConstraint=eastwest;newEdgeStyle={&quot;curved&quot;:0,&quot;rounded&quot;:0};" vertex="1" parent="94c8SYDP5ThlQuTTb6wz-1">
          <mxGeometry x="55" y="321" width="10" height="210" as="geometry" />
        </mxCell>
        <mxCell id="94c8SYDP5ThlQuTTb6wz-23" value="worstCard = findBestScoringCard(this.hand)" style="html=1;align=left;spacingLeft=2;endArrow=block;rounded=0;edgeStyle=orthogonalEdgeStyle;curved=0;rounded=0;fontSize=12;startSize=8;endSize=8;" edge="1" target="94c8SYDP5ThlQuTTb6wz-22" parent="94c8SYDP5ThlQuTTb6wz-1">
          <mxGeometry x="0.0118" relative="1" as="geometry">
            <mxPoint x="60" y="301" as="sourcePoint" />
            <Array as="points">
              <mxPoint x="90" y="331" />
            </Array>
            <mxPoint as="offset" />
          </mxGeometry>
        </mxCell>
        <mxCell id="94c8SYDP5ThlQuTTb6wz-35" value="" style="html=1;points=[[0,0,0,0,5],[0,1,0,0,-5],[1,0,0,0,5],[1,1,0,0,-5]];perimeter=orthogonalPerimeter;outlineConnect=0;targetShapes=umlLifeline;portConstraint=eastwest;newEdgeStyle={&quot;curved&quot;:0,&quot;rounded&quot;:0};" vertex="1" parent="94c8SYDP5ThlQuTTb6wz-1">
          <mxGeometry x="55" y="617" width="10" height="125" as="geometry" />
        </mxCell>
        <mxCell id="94c8SYDP5ThlQuTTb6wz-36" value="selectedCard = selectCardBasedOnProbabilities(this.hand)" style="html=1;align=left;spacingLeft=2;endArrow=block;rounded=0;edgeStyle=orthogonalEdgeStyle;curved=0;rounded=0;fontSize=12;startSize=8;endSize=8;" edge="1" target="94c8SYDP5ThlQuTTb6wz-35" parent="94c8SYDP5ThlQuTTb6wz-1">
          <mxGeometry relative="1" as="geometry">
            <mxPoint x="60" y="597" as="sourcePoint" />
            <Array as="points">
              <mxPoint x="90" y="627" />
            </Array>
          </mxGeometry>
        </mxCell>
        <mxCell id="94c8SYDP5ThlQuTTb6wz-5" value="Use case:&lt;div&gt;Clever Computer Player discard a card based on&lt;/div&gt;&lt;div&gt;Algorithm that evaluates the probability of cards and the score&lt;/div&gt;" style="text;html=1;align=left;verticalAlign=middle;resizable=0;points=[];autosize=1;strokeColor=none;fillColor=none;fontSize=16;" vertex="1" parent="1">
          <mxGeometry x="-283.5" y="-501.5" width="456" height="70" as="geometry" />
        </mxCell>
        <mxCell id="94c8SYDP5ThlQuTTb6wz-9" value="Selected Card based on&lt;div&gt;&amp;nbsp;pre-set movements&lt;/div&gt;" style="html=1;verticalAlign=bottom;endArrow=open;dashed=1;endSize=8;curved=0;rounded=0;fontSize=12;exitX=0.1;exitY=0.575;exitDx=0;exitDy=0;exitPerimeter=0;" edge="1" parent="1">
          <mxGeometry x="0.0037" relative="1" as="geometry">
            <mxPoint x="-30" y="-222" as="sourcePoint" />
            <mxPoint x="-241" y="-222" as="targetPoint" />
            <mxPoint as="offset" />
          </mxGeometry>
        </mxCell>
        <mxCell id="94c8SYDP5ThlQuTTb6wz-14" value="HiFive" style="shape=umlLifeline;perimeter=lifelinePerimeter;whiteSpace=wrap;html=1;container=1;dropTarget=0;collapsible=0;recursiveResize=0;outlineConnect=0;portConstraint=eastwest;newEdgeStyle={&quot;curved&quot;:0,&quot;rounded&quot;:0};" vertex="1" parent="1">
          <mxGeometry x="-295" y="-390" width="100" height="930" as="geometry" />
        </mxCell>
        <mxCell id="94c8SYDP5ThlQuTTb6wz-16" value="" style="html=1;points=[[0,0,0,0,5],[0,1,0,0,-5],[1,0,0,0,5],[1,1,0,0,-5]];perimeter=orthogonalPerimeter;outlineConnect=0;targetShapes=umlLifeline;portConstraint=eastwest;newEdgeStyle={&quot;curved&quot;:0,&quot;rounded&quot;:0};" vertex="1" parent="94c8SYDP5ThlQuTTb6wz-14">
          <mxGeometry x="46" y="67" width="10" height="820" as="geometry" />
        </mxCell>
        <mxCell id="94c8SYDP5ThlQuTTb6wz-17" value="playGame()" style="html=1;verticalAlign=bottom;startArrow=oval;endArrow=block;startSize=8;curved=0;rounded=0;entryX=0;entryY=0;entryDx=0;entryDy=5;fontSize=12;" edge="1" target="94c8SYDP5ThlQuTTb6wz-16" parent="94c8SYDP5ThlQuTTb6wz-14">
          <mxGeometry relative="1" as="geometry">
            <mxPoint x="-56" y="72" as="sourcePoint" />
          </mxGeometry>
        </mxCell>
        <mxCell id="94c8SYDP5ThlQuTTb6wz-19" value="" style="html=1;points=[[0,0,0,0,5],[0,1,0,0,-5],[1,0,0,0,5],[1,1,0,0,-5]];perimeter=orthogonalPerimeter;outlineConnect=0;targetShapes=umlLifeline;portConstraint=eastwest;newEdgeStyle={&quot;curved&quot;:0,&quot;rounded&quot;:0};" vertex="1" parent="94c8SYDP5ThlQuTTb6wz-14">
          <mxGeometry x="51" y="251" width="10" height="58" as="geometry" />
        </mxCell>
        <mxCell id="94c8SYDP5ThlQuTTb6wz-18" value="discardCard()" style="html=1;verticalAlign=bottom;endArrow=block;curved=0;rounded=0;fontSize=12;startSize=8;endSize=8;" edge="1" parent="1" source="94c8SYDP5ThlQuTTb6wz-16">
          <mxGeometry width="80" relative="1" as="geometry">
            <mxPoint x="-113" y="-286" as="sourcePoint" />
            <mxPoint x="-33" y="-286" as="targetPoint" />
          </mxGeometry>
        </mxCell>
        <mxCell id="94c8SYDP5ThlQuTTb6wz-20" value="dealACardToHand()" style="html=1;verticalAlign=bottom;endArrow=block;curved=0;rounded=0;fontSize=12;startSize=8;endSize=8;" edge="1" target="94c8SYDP5ThlQuTTb6wz-19" parent="1">
          <mxGeometry relative="1" as="geometry">
            <mxPoint x="-29" y="-130" as="sourcePoint" />
            <mxPoint x="-145" y="-130" as="targetPoint" />
          </mxGeometry>
        </mxCell>
        <mxCell id="94c8SYDP5ThlQuTTb6wz-21" value="A random card from deck" style="html=1;verticalAlign=bottom;endArrow=open;dashed=1;endSize=8;curved=0;rounded=0;fontSize=12;" edge="1" source="94c8SYDP5ThlQuTTb6wz-19" parent="1">
          <mxGeometry relative="1" as="geometry">
            <mxPoint x="-29" y="-92" as="targetPoint" />
            <mxPoint x="-145" y="-92" as="sourcePoint" />
          </mxGeometry>
        </mxCell>
        <mxCell id="94c8SYDP5ThlQuTTb6wz-25" value="CalculatorFactory" style="shape=umlLifeline;perimeter=lifelinePerimeter;whiteSpace=wrap;html=1;container=1;dropTarget=0;collapsible=0;recursiveResize=0;outlineConnect=0;portConstraint=eastwest;newEdgeStyle={&quot;curved&quot;:0,&quot;rounded&quot;:0};" vertex="1" parent="1">
          <mxGeometry x="164" y="-29" width="100" height="175" as="geometry" />
        </mxCell>
        <mxCell id="94c8SYDP5ThlQuTTb6wz-27" value="" style="html=1;points=[[0,0,0,0,5],[0,1,0,0,-5],[1,0,0,0,5],[1,1,0,0,-5]];perimeter=orthogonalPerimeter;outlineConnect=0;targetShapes=umlLifeline;portConstraint=eastwest;newEdgeStyle={&quot;curved&quot;:0,&quot;rounded&quot;:0};" vertex="1" parent="94c8SYDP5ThlQuTTb6wz-25">
          <mxGeometry x="44" y="81" width="10" height="73" as="geometry" />
        </mxCell>
        <mxCell id="94c8SYDP5ThlQuTTb6wz-26" value="Use" style="endArrow=open;endSize=12;dashed=1;html=1;rounded=0;fontSize=12;curved=1;entryX=0;entryY=0.057;entryDx=0;entryDy=0;entryPerimeter=0;" edge="1" parent="1" target="94c8SYDP5ThlQuTTb6wz-25">
          <mxGeometry width="160" relative="1" as="geometry">
            <mxPoint x="-12" y="-19" as="sourcePoint" />
            <mxPoint x="124" y="-19" as="targetPoint" />
          </mxGeometry>
        </mxCell>
        <mxCell id="94c8SYDP5ThlQuTTb6wz-28" value="calculateHighestScoreOnFive(temp)" style="html=1;verticalAlign=bottom;endArrow=block;curved=0;rounded=0;fontSize=12;startSize=8;endSize=8;" edge="1" target="94c8SYDP5ThlQuTTb6wz-27" parent="1">
          <mxGeometry relative="1" as="geometry">
            <mxPoint x="-13" y="75" as="sourcePoint" />
            <mxPoint x="170" y="75" as="targetPoint" />
          </mxGeometry>
        </mxCell>
        <mxCell id="94c8SYDP5ThlQuTTb6wz-29" value="highest score" style="html=1;verticalAlign=bottom;endArrow=open;dashed=1;endSize=8;curved=0;rounded=0;exitX=0;exitY=1;exitDx=0;exitDy=-5;fontSize=12;" edge="1" parent="1">
          <mxGeometry relative="1" as="geometry">
            <mxPoint x="-14" y="118" as="targetPoint" />
            <mxPoint x="208" y="118" as="sourcePoint" />
          </mxGeometry>
        </mxCell>
        <mxCell id="94c8SYDP5ThlQuTTb6wz-30" value="loop" style="shape=umlFrame;whiteSpace=wrap;html=1;pointerEvents=0;" vertex="1" parent="1">
          <mxGeometry x="-7" y="16" width="373" height="118" as="geometry" />
        </mxCell>
        <mxCell id="94c8SYDP5ThlQuTTb6wz-31" value="&lt;font style=&quot;font-size: 10px;&quot;&gt;[For each card in the hand]&lt;/font&gt;" style="text;html=1;align=center;verticalAlign=middle;resizable=0;points=[];autosize=1;strokeColor=none;fillColor=none;fontSize=16;" vertex="1" parent="1">
          <mxGeometry x="47" y="7" width="138" height="31" as="geometry" />
        </mxCell>
        <mxCell id="94c8SYDP5ThlQuTTb6wz-32" value="&lt;font color=&quot;#0b03ff&quot; style=&quot;font-size: 11px;&quot;&gt;variable temp is a list of&amp;nbsp;&lt;/font&gt;&lt;div&gt;&lt;font color=&quot;#0b03ff&quot; style=&quot;font-size: 11px;&quot;&gt;cards which include&amp;nbsp;&lt;/font&gt;&lt;div&gt;&lt;font color=&quot;#0b03ff&quot; style=&quot;font-size: 11px;&quot;&gt;player&#39;s hand of&amp;nbsp;&lt;/font&gt;&lt;/div&gt;&lt;div&gt;&lt;font color=&quot;#0b03ff&quot; style=&quot;font-size: 11px;&quot;&gt;cards without&amp;nbsp;&lt;/font&gt;&lt;/div&gt;&lt;div&gt;&lt;font color=&quot;#0b03ff&quot; style=&quot;font-size: 11px;&quot;&gt;the card looped each time&lt;/font&gt;&lt;/div&gt;&lt;/div&gt;" style="text;html=1;align=center;verticalAlign=middle;resizable=0;points=[];autosize=1;strokeColor=none;fillColor=none;fontSize=16;" vertex="1" parent="1">
          <mxGeometry x="216" y="21" width="145" height="108" as="geometry" />
        </mxCell>
        <mxCell id="94c8SYDP5ThlQuTTb6wz-33" value="the worstCard" style="html=1;verticalAlign=bottom;endArrow=open;dashed=1;endSize=8;curved=0;rounded=0;fontSize=12;" edge="1" parent="1">
          <mxGeometry relative="1" as="geometry">
            <mxPoint x="-30" y="190" as="sourcePoint" />
            <mxPoint x="-241" y="190" as="targetPoint" />
          </mxGeometry>
        </mxCell>
        <mxCell id="94c8SYDP5ThlQuTTb6wz-37" value="&lt;font style=&quot;font-size: 11px;&quot;&gt;selectedCard with highest probability&lt;/font&gt;" style="html=1;verticalAlign=bottom;endArrow=open;dashed=1;endSize=8;curved=0;rounded=0;fontSize=12;" edge="1" parent="1">
          <mxGeometry relative="1" as="geometry">
            <mxPoint x="-23" y="361" as="sourcePoint" />
            <mxPoint x="-238.0000000000001" y="361" as="targetPoint" />
          </mxGeometry>
        </mxCell>
        <mxCell id="94c8SYDP5ThlQuTTb6wz-38" value="ref" style="shape=umlFrame;whiteSpace=wrap;html=1;pointerEvents=0;" vertex="1" parent="1">
          <mxGeometry x="-218" y="267" width="369" height="76" as="geometry" />
        </mxCell>
        <mxCell id="94c8SYDP5ThlQuTTb6wz-39" value="&lt;font style=&quot;font-size: 11px;&quot;&gt;[selectCardBasedOnprobabilities]&lt;/font&gt;" style="text;html=1;align=center;verticalAlign=middle;resizable=0;points=[];autosize=1;strokeColor=none;fillColor=none;fontSize=16;" vertex="1" parent="1">
          <mxGeometry x="-207" y="294" width="181" height="31" as="geometry" />
        </mxCell>
        <mxCell id="94c8SYDP5ThlQuTTb6wz-40" value="alt" style="shape=umlFrame;whiteSpace=wrap;html=1;pointerEvents=0;" vertex="1" parent="1">
          <mxGeometry x="-483" y="-309" width="907" height="764" as="geometry" />
        </mxCell>
        <mxCell id="94c8SYDP5ThlQuTTb6wz-41" value="&lt;font style=&quot;font-size: 11px;&quot;&gt;[It is the auto mode]&lt;/font&gt;" style="text;html=1;align=center;verticalAlign=middle;resizable=0;points=[];autosize=1;strokeColor=none;fillColor=none;fontSize=16;" vertex="1" parent="1">
          <mxGeometry x="-430" y="-305" width="115" height="31" as="geometry" />
        </mxCell>
        <mxCell id="94c8SYDP5ThlQuTTb6wz-42" value="" style="endArrow=none;dashed=1;html=1;rounded=0;fontSize=12;startSize=8;endSize=8;curved=1;exitX=0.002;exitY=0.157;exitDx=0;exitDy=0;exitPerimeter=0;" edge="1" parent="1" source="94c8SYDP5ThlQuTTb6wz-40">
          <mxGeometry width="50" height="50" relative="1" as="geometry">
            <mxPoint x="-189" y="-136" as="sourcePoint" />
            <mxPoint x="426" y="-184" as="targetPoint" />
          </mxGeometry>
        </mxCell>
        <mxCell id="94c8SYDP5ThlQuTTb6wz-43" value="[It i not auto mode]" style="text;html=1;align=center;verticalAlign=middle;resizable=0;points=[];autosize=1;strokeColor=none;fillColor=none;fontSize=13;" vertex="1" parent="1">
          <mxGeometry x="-470" y="-164" width="126" height="28" as="geometry" />
        </mxCell>
        <mxCell id="94c8SYDP5ThlQuTTb6wz-44" value="alt" style="shape=umlFrame;whiteSpace=wrap;html=1;pointerEvents=0;" vertex="1" parent="1">
          <mxGeometry x="-222" y="138" width="625" height="299" as="geometry" />
        </mxCell>
        <mxCell id="94c8SYDP5ThlQuTTb6wz-45" value="&lt;font style=&quot;font-size: 11px;&quot;&gt;[worstCard != null]&lt;/font&gt;" style="text;html=1;align=center;verticalAlign=middle;resizable=0;points=[];autosize=1;strokeColor=none;fillColor=none;fontSize=16;" vertex="1" parent="1">
          <mxGeometry x="-162" y="131" width="107" height="31" as="geometry" />
        </mxCell>
        <mxCell id="94c8SYDP5ThlQuTTb6wz-46" value="" style="endArrow=none;dashed=1;html=1;rounded=0;fontSize=12;startSize=8;endSize=8;curved=1;entryX=1.001;entryY=0.251;entryDx=0;entryDy=0;entryPerimeter=0;" edge="1" parent="1" target="94c8SYDP5ThlQuTTb6wz-44">
          <mxGeometry width="50" height="50" relative="1" as="geometry">
            <mxPoint x="-219" y="213" as="sourcePoint" />
            <mxPoint x="-62" y="200" as="targetPoint" />
          </mxGeometry>
        </mxCell>
        <mxCell id="94c8SYDP5ThlQuTTb6wz-47" value="&lt;font style=&quot;font-size: 11px;&quot;&gt;[worstCard == null]&lt;/font&gt;" style="text;html=1;align=center;verticalAlign=middle;resizable=0;points=[];autosize=1;strokeColor=none;fillColor=none;fontSize=16;" vertex="1" parent="1">
          <mxGeometry x="-227" y="210" width="110" height="31" as="geometry" />
        </mxCell>
        <mxCell id="94c8SYDP5ThlQuTTb6wz-48" value="CleverComputer&lt;div&gt;Player&lt;/div&gt;" style="shape=umlLifeline;perimeter=lifelinePerimeter;whiteSpace=wrap;html=1;container=1;dropTarget=0;collapsible=0;recursiveResize=0;outlineConnect=0;portConstraint=eastwest;newEdgeStyle={&quot;curved&quot;:0,&quot;rounded&quot;:0};" vertex="1" parent="1">
          <mxGeometry x="-195" y="608" width="100" height="636" as="geometry" />
        </mxCell>
        <mxCell id="94c8SYDP5ThlQuTTb6wz-49" value="" style="html=1;points=[[0,0,0,0,5],[0,1,0,0,-5],[1,0,0,0,5],[1,1,0,0,-5]];perimeter=orthogonalPerimeter;outlineConnect=0;targetShapes=umlLifeline;portConstraint=eastwest;newEdgeStyle={&quot;curved&quot;:0,&quot;rounded&quot;:0};" vertex="1" parent="94c8SYDP5ThlQuTTb6wz-48">
          <mxGeometry x="46" y="81" width="10" height="494" as="geometry" />
        </mxCell>
        <mxCell id="94c8SYDP5ThlQuTTb6wz-50" value="selectedCardbasedOnprobabiliteis(handCards)" style="html=1;verticalAlign=bottom;startArrow=oval;endArrow=block;startSize=8;curved=0;rounded=0;entryX=0;entryY=0;entryDx=0;entryDy=5;fontSize=12;" edge="1" target="94c8SYDP5ThlQuTTb6wz-49" parent="94c8SYDP5ThlQuTTb6wz-48">
          <mxGeometry relative="1" as="geometry">
            <mxPoint x="-243" y="86" as="sourcePoint" />
          </mxGeometry>
        </mxCell>
        <mxCell id="94c8SYDP5ThlQuTTb6wz-52" value="" style="html=1;points=[[0,0,0,0,5],[0,1,0,0,-5],[1,0,0,0,5],[1,1,0,0,-5]];perimeter=orthogonalPerimeter;outlineConnect=0;targetShapes=umlLifeline;portConstraint=eastwest;newEdgeStyle={&quot;curved&quot;:0,&quot;rounded&quot;:0};" vertex="1" parent="94c8SYDP5ThlQuTTb6wz-48">
          <mxGeometry x="51" y="151" width="10" height="40" as="geometry" />
        </mxCell>
        <mxCell id="94c8SYDP5ThlQuTTb6wz-53" value="potentialDiscards =&lt;div&gt;&amp;nbsp;evaluateCardProbabilities(card, rank)&lt;/div&gt;" style="html=1;align=left;spacingLeft=2;endArrow=block;rounded=0;edgeStyle=orthogonalEdgeStyle;curved=0;rounded=0;fontSize=12;startSize=8;endSize=8;" edge="1" target="94c8SYDP5ThlQuTTb6wz-52" parent="94c8SYDP5ThlQuTTb6wz-48">
          <mxGeometry relative="1" as="geometry">
            <mxPoint x="56" y="131" as="sourcePoint" />
            <Array as="points">
              <mxPoint x="86" y="161" />
            </Array>
          </mxGeometry>
        </mxCell>
        <mxCell id="94c8SYDP5ThlQuTTb6wz-51" value="CardUtils" style="shape=umlLifeline;perimeter=lifelinePerimeter;whiteSpace=wrap;html=1;container=1;dropTarget=0;collapsible=0;recursiveResize=0;outlineConnect=0;portConstraint=eastwest;newEdgeStyle={&quot;curved&quot;:0,&quot;rounded&quot;:0};" vertex="1" parent="1">
          <mxGeometry x="84" y="660" width="100" height="475" as="geometry" />
        </mxCell>
        <mxCell id="94c8SYDP5ThlQuTTb6wz-56" value="" style="html=1;points=[[0,0,0,0,5],[0,1,0,0,-5],[1,0,0,0,5],[1,1,0,0,-5]];perimeter=orthogonalPerimeter;outlineConnect=0;targetShapes=umlLifeline;portConstraint=eastwest;newEdgeStyle={&quot;curved&quot;:0,&quot;rounded&quot;:0};" vertex="1" parent="94c8SYDP5ThlQuTTb6wz-51">
          <mxGeometry x="44" y="226" width="10" height="48" as="geometry" />
        </mxCell>
        <mxCell id="94c8SYDP5ThlQuTTb6wz-59" value="" style="html=1;points=[[0,0,0,0,5],[0,1,0,0,-5],[1,0,0,0,5],[1,1,0,0,-5]];perimeter=orthogonalPerimeter;outlineConnect=0;targetShapes=umlLifeline;portConstraint=eastwest;newEdgeStyle={&quot;curved&quot;:0,&quot;rounded&quot;:0};" vertex="1" parent="94c8SYDP5ThlQuTTb6wz-51">
          <mxGeometry x="44" y="302" width="10" height="51" as="geometry" />
        </mxCell>
        <mxCell id="94c8SYDP5ThlQuTTb6wz-62" value="" style="html=1;points=[[0,0,0,0,5],[0,1,0,0,-5],[1,0,0,0,5],[1,1,0,0,-5]];perimeter=orthogonalPerimeter;outlineConnect=0;targetShapes=umlLifeline;portConstraint=eastwest;newEdgeStyle={&quot;curved&quot;:0,&quot;rounded&quot;:0};" vertex="1" parent="94c8SYDP5ThlQuTTb6wz-51">
          <mxGeometry x="44" y="381" width="10" height="52" as="geometry" />
        </mxCell>
        <mxCell id="94c8SYDP5ThlQuTTb6wz-54" value="loop" style="shape=umlFrame;whiteSpace=wrap;html=1;pointerEvents=0;" vertex="1" parent="1">
          <mxGeometry x="-310" y="720" width="426" height="121" as="geometry" />
        </mxCell>
        <mxCell id="94c8SYDP5ThlQuTTb6wz-55" value="&lt;font style=&quot;font-size: 11px;&quot;&gt;[For each card in hand,&amp;nbsp;&lt;/font&gt;&lt;div&gt;&lt;font style=&quot;font-size: 11px;&quot;&gt;if the card is not picture card,&amp;nbsp;&lt;/font&gt;&lt;/div&gt;&lt;div&gt;&lt;font style=&quot;font-size: 11px;&quot;&gt;evaluate with probabilities]&lt;/font&gt;&lt;/div&gt;" style="text;html=1;align=center;verticalAlign=middle;resizable=0;points=[];autosize=1;strokeColor=none;fillColor=none;fontSize=16;fontColor=#171FFF;" vertex="1" parent="1">
          <mxGeometry x="-310" y="749" width="162" height="70" as="geometry" />
        </mxCell>
        <mxCell id="94c8SYDP5ThlQuTTb6wz-57" value="getCardWithLowestSuit(handCards)" style="html=1;verticalAlign=bottom;endArrow=block;curved=0;rounded=0;entryX=0;entryY=0;entryDx=0;entryDy=5;fontSize=12;startSize=8;endSize=8;" edge="1" target="94c8SYDP5ThlQuTTb6wz-56" parent="1" source="94c8SYDP5ThlQuTTb6wz-49">
          <mxGeometry relative="1" as="geometry">
            <mxPoint x="58" y="891" as="sourcePoint" />
          </mxGeometry>
        </mxCell>
        <mxCell id="94c8SYDP5ThlQuTTb6wz-58" value="target card" style="html=1;verticalAlign=bottom;endArrow=open;dashed=1;endSize=8;curved=0;rounded=0;exitX=0;exitY=1;exitDx=0;exitDy=-5;fontSize=12;" edge="1" parent="1">
          <mxGeometry relative="1" as="geometry">
            <mxPoint x="-138" y="925.41" as="targetPoint" />
            <mxPoint x="128.99999999999977" y="925.41" as="sourcePoint" />
          </mxGeometry>
        </mxCell>
        <mxCell id="94c8SYDP5ThlQuTTb6wz-60" value="getCardWithLoestSuit(potentialDiscards)" style="html=1;verticalAlign=bottom;endArrow=block;curved=0;rounded=0;entryX=0;entryY=0;entryDx=0;entryDy=5;fontSize=12;startSize=8;endSize=8;" edge="1" target="94c8SYDP5ThlQuTTb6wz-59" parent="1" source="94c8SYDP5ThlQuTTb6wz-49">
          <mxGeometry relative="1" as="geometry">
            <mxPoint x="58" y="967" as="sourcePoint" />
          </mxGeometry>
        </mxCell>
        <mxCell id="94c8SYDP5ThlQuTTb6wz-61" value="target card" style="html=1;verticalAlign=bottom;endArrow=open;dashed=1;endSize=8;curved=0;rounded=0;fontSize=12;" edge="1" parent="1">
          <mxGeometry relative="1" as="geometry">
            <mxPoint x="-139" y="1003.0000000000005" as="targetPoint" />
            <mxPoint x="127.99999999999977" y="1003.0000000000005" as="sourcePoint" />
          </mxGeometry>
        </mxCell>
        <mxCell id="94c8SYDP5ThlQuTTb6wz-64" value="target card" style="html=1;verticalAlign=bottom;endArrow=open;dashed=1;endSize=8;curved=0;rounded=0;exitX=0;exitY=1;exitDx=0;exitDy=-5;fontSize=12;" edge="1" source="94c8SYDP5ThlQuTTb6wz-62" parent="1" target="94c8SYDP5ThlQuTTb6wz-49">
          <mxGeometry relative="1" as="geometry">
            <mxPoint x="58" y="1116" as="targetPoint" />
          </mxGeometry>
        </mxCell>
        <mxCell id="94c8SYDP5ThlQuTTb6wz-63" value="getCardWithHighestRank(handCards)" style="html=1;verticalAlign=bottom;endArrow=block;curved=0;rounded=0;entryX=0;entryY=0;entryDx=0;entryDy=5;fontSize=12;startSize=8;endSize=8;" edge="1" target="94c8SYDP5ThlQuTTb6wz-62" parent="1" source="94c8SYDP5ThlQuTTb6wz-49">
          <mxGeometry relative="1" as="geometry">
            <mxPoint x="58" y="1046" as="sourcePoint" />
          </mxGeometry>
        </mxCell>
        <mxCell id="94c8SYDP5ThlQuTTb6wz-65" value="The card with highest probability" style="html=1;verticalAlign=bottom;endArrow=open;dashed=1;endSize=8;curved=0;rounded=0;fontSize=12;" edge="1" parent="1" source="94c8SYDP5ThlQuTTb6wz-48">
          <mxGeometry relative="1" as="geometry">
            <mxPoint x="-187" y="1168" as="sourcePoint" />
            <mxPoint x="-444" y="1168" as="targetPoint" />
          </mxGeometry>
        </mxCell>
        <mxCell id="94c8SYDP5ThlQuTTb6wz-66" value="&lt;div&gt;alt&lt;/div&gt;" style="shape=umlFrame;whiteSpace=wrap;html=1;pointerEvents=0;" vertex="1" parent="1">
          <mxGeometry x="-338" y="869" width="577" height="248" as="geometry" />
        </mxCell>
        <mxCell id="94c8SYDP5ThlQuTTb6wz-67" value="&lt;font style=&quot;font-size: 11px;&quot;&gt;[if all cards in hand&lt;/font&gt;&lt;div&gt;&lt;font style=&quot;font-size: 11px;&quot;&gt;&amp;nbsp;are picture cards]&lt;/font&gt;&lt;/div&gt;" style="text;html=1;align=center;verticalAlign=middle;resizable=0;points=[];autosize=1;strokeColor=none;fillColor=none;fontSize=16;" vertex="1" parent="1">
          <mxGeometry x="-278" y="869" width="110" height="50" as="geometry" />
        </mxCell>
        <mxCell id="94c8SYDP5ThlQuTTb6wz-68" value="" style="endArrow=none;dashed=1;html=1;rounded=0;fontSize=12;startSize=8;endSize=8;curved=1;exitX=0;exitY=0.281;exitDx=0;exitDy=0;exitPerimeter=0;entryX=1.004;entryY=0.291;entryDx=0;entryDy=0;entryPerimeter=0;" edge="1" parent="1" source="94c8SYDP5ThlQuTTb6wz-66" target="94c8SYDP5ThlQuTTb6wz-66">
          <mxGeometry width="50" height="50" relative="1" as="geometry">
            <mxPoint x="-153" y="989" as="sourcePoint" />
            <mxPoint x="-103" y="939" as="targetPoint" />
          </mxGeometry>
        </mxCell>
        <mxCell id="94c8SYDP5ThlQuTTb6wz-70" value="&lt;font style=&quot;font-size: 11px;&quot;&gt;[if not all cards in hand&lt;/font&gt;&lt;div&gt;&lt;font style=&quot;font-size: 11px;&quot;&gt;&amp;nbsp;are picture cards]&lt;/font&gt;&lt;/div&gt;" style="text;html=1;align=center;verticalAlign=middle;resizable=0;points=[];autosize=1;strokeColor=none;fillColor=none;fontSize=16;" vertex="1" parent="1">
          <mxGeometry x="-336.5" y="937" width="128" height="50" as="geometry" />
        </mxCell>
        <mxCell id="94c8SYDP5ThlQuTTb6wz-71" value="" style="endArrow=none;dashed=1;html=1;rounded=0;fontSize=12;startSize=8;endSize=8;curved=1;entryX=0.999;entryY=0.642;entryDx=0;entryDy=0;entryPerimeter=0;exitX=-0.002;exitY=0.647;exitDx=0;exitDy=0;exitPerimeter=0;" edge="1" parent="1" source="94c8SYDP5ThlQuTTb6wz-66" target="94c8SYDP5ThlQuTTb6wz-66">
          <mxGeometry width="50" height="50" relative="1" as="geometry">
            <mxPoint x="-332" y="1028" as="sourcePoint" />
            <mxPoint x="-150" y="954" as="targetPoint" />
          </mxGeometry>
        </mxCell>
        <mxCell id="94c8SYDP5ThlQuTTb6wz-72" value="&lt;span style=&quot;font-size: 11px;&quot;&gt;[Elsewise]&lt;/span&gt;" style="text;html=1;align=center;verticalAlign=middle;resizable=0;points=[];autosize=1;strokeColor=none;fillColor=none;fontSize=16;" vertex="1" parent="1">
          <mxGeometry x="-332" y="1031" width="68" height="31" as="geometry" />
        </mxCell>
        <mxCell id="94c8SYDP5ThlQuTTb6wz-73" value="ref" style="shape=umlFrame;whiteSpace=wrap;html=1;pointerEvents=0;" vertex="1" parent="1">
          <mxGeometry x="-473" y="595" width="858" height="679" as="geometry" />
        </mxCell>
        <mxCell id="94c8SYDP5ThlQuTTb6wz-74" value="&lt;font style=&quot;font-size: 11px;&quot;&gt;[selectCardBasedOnprobabilities]&lt;/font&gt;" style="text;html=1;align=center;verticalAlign=middle;resizable=0;points=[];autosize=1;strokeColor=none;fillColor=none;fontSize=16;" vertex="1" parent="1">
          <mxGeometry x="-435" y="634" width="181" height="31" as="geometry" />
        </mxCell>
      </root>
    </mxGraphModel>
  </diagram>
</mxfile>
